<svg xmlns="http://www.w3.org/2000/svg" width="8" height="8" viewBox="0 0 8 8">
    <path fill="#333" fill-rule="evenodd" d="M3.263 3.816A.25.25 0 0 0 3.18 4c0 .07.028.13.083.184l3.86 3.736a.266.266 0 0 0 .38 0l.414-.401A.25.25 0 0 0 8 7.335a.25.25 0 0 0-.083-.185L4.663 4 7.917.85A.25.25 0 0 0 8 .665a.25.25 0 0 0-.083-.184l-.414-.4a.266.266 0 0 0-.38 0l-3.86 3.735zm-3.18 0A.25.25 0 0 0 0 4c0 .07.028.13.083.184L3.942 7.92a.266.266 0 0 0 .381 0l.414-.401a.25.25 0 0 0 .083-.184.25.25 0 0 0-.083-.185L1.482 4 4.737.85A.25.25 0 0 0 4.82.665a.25.25 0 0 0-.083-.184l-.414-.4a.266.266 0 0 0-.381 0L.082 3.815z"/>
</svg>
