<svg xmlns="http://www.w3.org/2000/svg" width="8" height="8" viewBox="0 0 8 8">
    <path fill="#333" fill-rule="evenodd" d="M4.737 3.816A.25.25 0 0 1 4.82 4a.25.25 0 0 1-.083.184L.877 7.92a.266.266 0 0 1-.38 0l-.414-.401A.25.25 0 0 1 0 7.335c0-.07.028-.131.083-.185L3.337 4 .083.85A.25.25 0 0 1 0 .665c0-.07.028-.13.083-.184l.414-.4a.266.266 0 0 1 .38 0l3.86 3.735zm3.18 0A.25.25 0 0 1 8 4a.25.25 0 0 1-.083.184L4.058 7.92a.266.266 0 0 1-.381 0l-.414-.401a.25.25 0 0 1-.083-.184c0-.07.028-.131.083-.185L6.518 4 3.263.85A.25.25 0 0 1 3.18.665c0-.07.028-.13.083-.184l.414-.4a.266.266 0 0 1 .381 0l3.86 3.735z"/>
</svg>
