<svg xmlns="http://www.w3.org/2000/svg" width="156" height="35" viewBox="0 0 156 35">
    <g fill="#449D2F" fill-rule="nonzero">
        <path d="M49.377 17.443c0-5.142 2.985-8.486 8.335-8.486 2.398 0 3.828.462 4.843.946l-.715 1.89c-1.291-.414-2.237-.714-4.082-.714-3.274-.023-5.844 1.775-5.844 6.134 0 4.45 2.662 6.387 6.282 6.387 1.545 0 2.721-.23 3.805-.577l.577 1.938c-1.222.461-2.514.807-4.773.807-5.558 0-8.428-3.32-8.428-8.325M64.175 18.458c0-2.582.484-6.641 1.937-8.002 1.268-1.199 4.658-2.006 8.601-2.743l.392 2.167c-3.505.6-6.618 1.153-7.379 1.89-.668.646-.968 2.122-1.107 3.229 1.061-.576 2.514-1.13 4.29-1.13 3.02 0 4.934 1.499 4.934 5.327 0 4.496-2.605 6.502-6.088 6.502-3.458 0-5.58-2.167-5.58-7.24m9.247.83c0-2.006-.853-3.55-3.136-3.55-1.453 0-2.606.506-3.736 1.083a29.83 29.83 0 0 0-.046 1.43c0 3.758 1.13 5.51 3.436 5.51 2.72 0 3.482-2.305 3.482-4.473M77.822 19.426c0-4.98 2.537-6.848 5.696-6.848 3.528 0 5.004 2.237 5.004 6.341v.854h-8.279c.024 3.32 1.914 3.989 4.128 3.989 1.2 0 2.214-.185 3.459-.554l.415 1.868c-1.106.415-2.606.692-4.243.692-3.759 0-6.18-1.476-6.18-6.342zm8.21-1.337c0-2.237-.808-3.69-2.652-3.69-1.66 0-2.906 1.223-3.067 3.69h5.719zM90.95 12.9h2.398v.992c1.083-.76 2.075-1.291 3.62-1.291 2.975 0 5.004 2.075 5.004 6.272 0 5.142-3.044 6.872-6.434 6.872-.784 0-1.637-.116-2.19-.185v5.004H90.95V12.9zm8.578 6.088c0-2.283-.808-4.335-3.229-4.335-1.314 0-2.306.6-2.951.946v7.978c.3.046 1.29.231 2.144.231 2.882 0 4.036-2.007 4.036-4.82zM104.054 18.458c0-2.582.484-6.641 1.936-8.002 1.269-1.199 4.659-2.006 8.602-2.743l.392 2.167c-3.505.6-6.619 1.153-7.38 1.89-.668.646-.968 2.122-1.107 3.229 1.061-.576 2.514-1.13 4.29-1.13 3.02 0 4.935 1.499 4.935 5.327 0 4.496-2.606 6.502-6.088 6.502-3.459 0-5.58-2.167-5.58-7.24m9.246.83c0-2.006-.853-3.55-3.135-3.55-1.454 0-2.607.506-3.737 1.083a30.088 30.088 0 0 0-.045 1.43c0 3.758 1.13 5.51 3.435 5.51 2.722 0 3.482-2.305 3.482-4.473M117.273 22.101c0-3.182 2.813-3.828 5.004-3.85l2.744-.047v-1.36c0-1.73-.876-2.19-2.72-2.19-1.338 0-2.445.23-3.53.599l-.506-1.822c1.176-.485 2.582-.853 4.426-.853 3.022 0 4.682 1.06 4.682 3.62v6.572c0 .784.668.945 1.314.968l-.191 1.845c-.161.023-.316.046-.478.046-1.291 0-2.56-.392-2.79-1.522-.784.6-2.075 1.591-4.081 1.591-2.329 0-3.874-1.268-3.874-3.597m7.748.554v-2.906l-2.675.116c-1.73.046-2.72.784-2.72 2.075 0 1.268.921 1.845 2.144 1.845 1.13 0 2.352-.554 3.25-1.13M130.746 12.9h2.421v5.327h5.926v-5.326h2.422v12.59h-2.422v-5.35h-5.926v5.35h-2.42zM144.483 12.9h2.421v12.591h-2.421v-12.59zm6.094 10.424l-3.58-4.29 5.01-6.133h2.721l-5.126 5.949 2.497 2.767c1.107 1.268 2.122 2.006 3.136 2.283l-.415 1.798c-1.176-.068-2.583-.345-4.243-2.374zM36.347 16.754c0 10.033-8.136 18.17-18.174 18.17C8.137 34.924 0 26.787 0 16.754c0-.41.017-.814.042-1.214l11.003 6.33L34.351 8.462a18.106 18.106 0 0 1 1.996 8.29zm-25.302.542L.801 11.405c-.2.653-.365 1.32-.491 2.003l10.735 6.175 22.306-12.83a18.97 18.97 0 0 0-1.189-1.603L11.045 17.296zM30.778 3.662a18.372 18.372 0 0 0-1.595-1.368l-18.138 10.43-8.658-4.98a18.081 18.081 0 0 0-.889 1.777l9.547 5.488L30.778 3.662zM11.045 10.44l16.303-9.375A18.166 18.166 0 0 0 25.224 0L11.045 8.154 4.732 4.522c-.45.494-.872 1.017-1.267 1.557l7.58 4.36z"/>
    </g>
</svg>
