<svg xmlns="http://www.w3.org/2000/svg" width="20" height="18" viewBox="0 0 20 18">
    <path fill="#000" fill-rule="nonzero" d="M10 13a3 3 0 0 1-1.479-5.611l9.687-5.614-5.529 9.576A3 3 0 0 1 10 13zm0-13c1.808 0 3.504.48 4.967 1.319l-2.098 1.21a8 8 0 0 0-8.528 13.125l.005-.005a1 1 0 0 1-1.412 1.417l-.005.005A9.969 9.969 0 0 1 0 10C0 4.477 4.477 0 10 0zm10 10a9.97 9.97 0 0 1-2.929 7.071l-.002-.002a1 1 0 0 1-1.41-1.42l.003.003A7.975 7.975 0 0 0 18 10a7.982 7.982 0 0 0-.54-2.897l1.208-2.093A9.954 9.954 0 0 1 20 10z"/>
</svg>
