<svg xmlns="http://www.w3.org/2000/svg" width="17" height="13" viewBox="0 0 17 13">
    <path fill="#449D2F" fill-rule="evenodd" d="M4.857 10.34v1.774a.843.843 0 0 1-.265.627.89.89 0 0 1-.646.259H.911a.89.89 0 0 1-.645-.259.843.843 0 0 1-.266-.627V10.34c0-.246.089-.456.266-.628a.89.89 0 0 1 .645-.258h3.035a.89.89 0 0 1 .646.258.843.843 0 0 1 .265.628zm0-4.726v1.772a.843.843 0 0 1-.265.628.89.89 0 0 1-.646.259H.911a.89.89 0 0 1-.645-.259A.843.843 0 0 1 0 7.386V5.614c0-.247.089-.456.266-.628a.89.89 0 0 1 .645-.259h3.035a.89.89 0 0 1 .646.259.843.843 0 0 1 .265.628zM17 10.34v1.773a.843.843 0 0 1-.266.627.89.89 0 0 1-.645.259H6.982a.89.89 0 0 1-.645-.259.843.843 0 0 1-.266-.627V10.34c0-.246.089-.456.266-.628a.89.89 0 0 1 .645-.258h9.107a.89.89 0 0 1 .645.258.843.843 0 0 1 .266.628zM4.857.886V2.66a.843.843 0 0 1-.265.628.89.89 0 0 1-.646.258H.911a.89.89 0 0 1-.645-.258A.843.843 0 0 1 0 2.659V.886C0 .64.089.431.266.26A.89.89 0 0 1 .91 0h3.035a.89.89 0 0 1 .646.259.843.843 0 0 1 .265.627zM17 5.614v1.772a.843.843 0 0 1-.266.628.89.89 0 0 1-.645.259H6.982a.89.89 0 0 1-.645-.259.843.843 0 0 1-.266-.628V5.614c0-.247.089-.456.266-.628a.89.89 0 0 1 .645-.259h9.107a.89.89 0 0 1 .645.259.843.843 0 0 1 .266.628zm0-4.728V2.66a.843.843 0 0 1-.266.628.89.89 0 0 1-.645.258H6.982a.89.89 0 0 1-.645-.258.843.843 0 0 1-.266-.628V.886c0-.246.089-.455.266-.627A.89.89 0 0 1 6.982 0h9.107a.89.89 0 0 1 .645.259.843.843 0 0 1 .266.627z"/>
</svg>
