<?xml version="1.0" encoding="utf-8"?>
<!-- Generator: Adobe Illustrator 22.0.1, SVG Export Plug-In . SVG Version: 6.00 Build 0)  -->
<svg version="1.1" id="Layer_1" xmlns="http://www.w3.org/2000/svg" xmlns:xlink="http://www.w3.org/1999/xlink" x="0px" y="0px"
	 width="17px" height="14px" viewBox="0 0 17 14" style="enable-background:new 0 0 17 14;" xml:space="preserve">
<style type="text/css">
	.st0{fill:#333333;enable-background:new    ;}
</style>
<path class="st0" d="M7.8,8.9v3.8c0,0.3-0.1,0.6-0.4,0.9C7.2,13.9,6.9,14,6.5,14H1.3c-0.4,0-0.7-0.1-0.9-0.4C0.1,13.4,0,13.1,0,12.7
	V8.9C0,8.6,0.1,8.3,0.4,8C0.6,7.8,1,7.6,1.3,7.6h5.2c0.4,0,0.7,0.1,0.9,0.4S7.8,8.6,7.8,8.9z M7.8,1.3v3.8c0,0.3-0.1,0.6-0.4,0.9
	C7.2,6.2,6.9,6.4,6.5,6.4H1.3C1,6.4,0.6,6.2,0.4,6C0.1,5.8,0,5.4,0,5.1V1.3c0-0.3,0.1-0.6,0.4-0.9C0.6,0.1,1,0,1.3,0h5.2
	c0.4,0,0.7,0.1,0.9,0.4S7.8,0.9,7.8,1.3z M17,8.9v3.8c0,0.3-0.1,0.6-0.4,0.9C16.4,13.9,16,14,15.7,14h-5.2c-0.4,0-0.7-0.1-0.9-0.4
	c-0.2-0.2-0.4-0.6-0.4-0.9V8.9c0-0.3,0.1-0.6,0.4-0.9c0.3-0.3,0.6-0.4,0.9-0.4h5.2c0.4,0,0.7,0.1,0.9,0.4S17,8.6,17,8.9L17,8.9z
	 M17,1.3v3.8c0,0.3-0.1,0.6-0.4,0.9c-0.2,0.2-0.6,0.4-0.9,0.4h-5.2c-0.4,0-0.7-0.1-0.9-0.4C9.3,5.8,9.2,5.4,9.2,5.1V1.3
	c0-0.3,0.1-0.6,0.4-0.9C9.8,0.1,10.1,0,10.5,0h5.2c0.4,0,0.7,0.1,0.9,0.4S17,0.9,17,1.3z"/>
</svg>
